<?xml version="1.0" encoding="utf-8"?>
<!-- Generator: Adobe Illustrator 25.4.1, SVG Export Plug-In . SVG Version: 6.00 Build 0)  -->
<svg version="1.1" id="Capa_1" xmlns="http://www.w3.org/2000/svg" xmlns:xlink="http://www.w3.org/1999/xlink" x="0px" y="0px"
	 viewBox="0 0 1080 1080" style="enable-background:new 0 0 1080 1080;" xml:space="preserve">
<style type="text/css">
	.st0{fill:#0094C0;}
	.st1{fill:#FFFFFF;}
</style>
<g>
	<g>
		<path class="st0" d="M719.7,775.4H289.1c-83.9,0-152.2-68.3-152.2-152.2V350.8c0-83.9,68.3-152.2,152.2-152.2h430.6
			c83.9,0,152.2,68.3,152.2,152.2v272.4C871.9,707.1,803.6,775.4,719.7,775.4z M289.1,226.9c-68.3,0-123.9,55.6-123.9,123.9v272.4
			c0,68.3,55.6,123.9,123.9,123.9h430.6c68.3,0,123.9-55.6,123.9-123.9V350.8c0-68.3-55.6-123.9-123.9-123.9H289.1z"/>
	</g>
	<g>
		<rect x="166.3" y="678.7" class="st0" width="674.7" height="20.5"/>
	</g>
	<g>
		<rect x="493.9" y="761.2" class="st0" width="21" height="117"/>
	</g>
	<g>
		<path class="st0" d="M215.5,348.8c-1.7,0-3.4-0.6-4.8-1.8c-3-2.7-3.3-7.3-0.7-10.3l53.1-60.4c2.7-3,7.3-3.3,10.3-0.7
			c3,2.7,3.3,7.3,0.7,10.3L221,346.3C219.6,348,217.5,348.8,215.5,348.8z"/>
	</g>
	<g>
		<path class="st0" d="M220.9,399.2c-1.8,0-3.6-0.7-5-2c-2.9-2.8-3.1-7.4-0.3-10.4L311.1,286c2.8-2.9,7.4-3,10.4-0.3
			c2.9,2.8,3.1,7.4,0.3,10.4l-95.6,100.8C224.7,398.4,222.8,399.2,220.9,399.2z"/>
	</g>
	<g>
		<path class="st0" d="M535.3,731h-58.2c-2.9,0-5.3-2.4-5.3-5.3c0-2.9,2.4-5.3,5.3-5.3h58.2c2.9,0,5.3,2.4,5.3,5.3
			C540.6,728.7,538.2,731,535.3,731z"/>
	</g>
	<g>
		<circle class="st1" cx="784.3" cy="328.7" r="158.8"/>
	</g>
	<g>
		<path class="st0" d="M696.5,383.1c-0.3,0-1,0-2,0.1c-1,0.1-2.3,0.1-3.9,0.2c-1.6,0.1-3.1,0.1-4.3,0.1c-2.7,0.1-4.9,0.2-6.5,0.2
			c-1,0.1-1.8,0.1-2.4,0h-1.1c-0.8,0-1.7-0.2-2.7-0.5c-2.6-1-5.2-2.7-7.6-4.8c-2.5-2.2-4-4.9-4.5-8.3c-0.6-3.6,0.3-7.4,2.7-11.3
			c1.5-2.5,3.8-5.4,6.9-8.7c2.5-2.5,8.9-8.2,19.2-17.2c8.7-7.6,15-13.4,18.8-17.7c4.6-5.4,7-9.5,7.1-12.3c0.1-5.1-1.1-9-3.5-11.4
			c-2.5-2.5-5.8-3.8-9.8-4c-4.4-0.1-8.6,1.1-12.7,3.5c-4,2.5-7,5.9-8.7,10.2c-0.1,0.4-0.2,1.2-0.3,2.2c-0.2,3.3-0.3,4.9-0.3,5
			c-0.3,2.1-1.3,3.8-3.1,5.1c-1.7,1.3-3.7,1.8-5.8,1.6c-2.2-0.3-3.9-1.3-5.2-3c-1.3-1.7-1.9-3.7-1.7-5.9c0.1-0.4,0.2-0.8,0.2-1.3
			c0.1-0.4,0.1-0.9,0.1-1.5s0.1-1,0.2-1.3c0.2-2.6,0.7-4.8,1.4-6.6c2.9-7.7,7.9-13.6,14.8-17.8c6.9-4.2,14.1-6.2,21.6-6
			c8.2,0.3,15.1,3.2,20.7,8.7c5.6,5.5,8.2,13.1,8,22.8c-0.2,6.7-3.9,14.2-11,22.4c-4,4.5-10.7,10.9-20.2,19.1
			c-9.8,8.4-15.9,13.9-18.4,16.4c-2.2,2.3-3.8,4.3-4.7,5.8c-0.1,0.1-0.2,0.3-0.2,0.5c0.2,0.2,0.5,0.4,0.9,0.5h1.1
			c1.5,0,3.6,0,6.3-0.2c1.3,0,2.7,0,4.4-0.1c1.7-0.1,3-0.1,4-0.2c1-0.1,1.7-0.1,2-0.1c11.7-0.2,25.4,0.2,41.3,1.3
			c2.2,0.1,4,1,5.4,2.7c1.4,1.7,2.1,3.6,2,5.8c-0.1,2.2-1,3.9-2.7,5.4c-1.7,1.4-3.6,2.1-5.7,2C721,383.3,707.6,382.9,696.5,383.1z"
			/>
		<path class="st0" d="M800.1,382.8c-1.6-1.4-2.4-3.3-2.4-5.8c0-5.9,0.1-13.6,0.3-23l-11.8,0.2c-7.7,0-14.8,0.1-21.3,0.3
			c-4.4,0.2-8-0.6-10.9-2.4c-2.8-1.8-4.3-4.6-4.3-8.4c0-1.9,0.5-3.8,1.6-5.7c1-1.9,2.9-4.1,5.5-6.8c2.9-2.9,8.8-10.8,17.6-23.6
			c8.8-12.8,14.9-22.5,18.4-29c1.5-2.8,3.1-4.9,4.7-6.1s3.7-1.8,6-1.8c2.4,0,4.5,0.9,6.3,2.7c1.8,1.8,2.8,4.7,3,8.7
			c1.5,23.6,1.9,42.4,1.4,56.3c7.5,0,12.7,0.1,15.8,0.2c2.4,0,4.3,0.7,5.7,2.2c1.4,1.5,2.1,3.3,2.1,5.4c0,2.2-0.7,4.1-2.1,5.8
			c-1.4,1.6-3.4,2.4-5.9,2.4c-3.1-0.1-8.4-0.2-15.8-0.2c-0.3,7.4-0.5,15.1-0.5,23.3c0,2.4-0.8,4.3-2.3,5.6c-1.5,1.3-3.3,2-5.4,2
			C803.5,384.8,801.6,384.1,800.1,382.8z M798.5,338.2c0.2-5.5,0.3-12.4,0.2-20.8c-0.1-8.4-0.3-14.4-0.6-18.1
			c-7.5,12.7-16.3,25.8-26.6,39.2L798.5,338.2z"/>
		<path class="st0" d="M915,382c-1.6,1.5-3.4,2.2-5.6,2.1c-2.2-0.1-4-0.9-5.4-2.4c-1.5-1.6-2.2-3.4-2.2-5.5c0-0.1,0.3-5,0.9-14.8
			c0.6-10.7,0.7-18.9,0.3-24.4c-0.9-13.1-5.8-20-14.5-20.6c-4.6-0.3-8.4,0.4-11.4,2.1c-3,1.7-5.9,4.8-8.7,9.1
			c-0.2,0.3-0.6,1-1.3,2.2c0.7,22.7,1.1,38.2,1.1,46.7c0,2.2-0.8,4.1-2.3,5.6c-1.5,1.5-3.4,2.3-5.6,2.3c-2.2,0-4.1-0.8-5.6-2.3
			c-1.5-1.5-2.3-3.4-2.3-5.6c0-4.8-0.4-21.2-1.3-49c-0.6-20.9-0.7-37.5-0.3-49.8c0.1-2.1,0.9-3.9,2.5-5.4c1.6-1.5,3.4-2.2,5.6-2.1
			c2.2,0.1,4,0.9,5.5,2.5c1.5,1.6,2.2,3.5,2.1,5.7c-0.1,2.8-0.2,13.8-0.2,32.9c6.7-7.8,14.6-11.3,23.6-10.6
			c17.4,1.5,27,13.2,28.7,35.1c0.3,6.1,0.4,11.4,0.2,15.9c-0.2,4.5-0.4,9.5-0.9,15c-0.4,5.5-0.6,8.8-0.6,9.9
			C917.4,378.7,916.5,380.5,915,382z"/>
	</g>
	<g>
		<path class="st0" d="M336.8,903.5c0,0,97.7-34,171.7-31.7c74,2.3,167.2,31.7,167.2,31.7H336.8z"/>
		<path class="st0" d="M675.7,910.1H336.8c-3.2,0-6-2.3-6.5-5.5s1.3-6.3,4.3-7.3c4-1.4,99.7-34,174-32.1c74.1,2.3,165.1,30.8,169,32
			c3.1,1,5,4.1,4.5,7.3S678.9,910.1,675.7,910.1z M382,896.9h244.6c-33.3-8.1-78.8-17.3-118.3-18.5
			C466.6,877.2,416.8,887.7,382,896.9z"/>
	</g>
</g>
</svg>
