<?xml version="1.0" encoding="utf-8"?>
<!-- Generator: Adobe Illustrator 25.4.1, SVG Export Plug-In . SVG Version: 6.00 Build 0)  -->
<svg version="1.1" id="Capa_1" xmlns="http://www.w3.org/2000/svg" xmlns:xlink="http://www.w3.org/1999/xlink" x="0px" y="0px"
	 viewBox="0 0 1080 1080" style="enable-background:new 0 0 1080 1080;" xml:space="preserve">
<style type="text/css">
	.st0{fill:#0494C0;}
	.st1{fill:#6EC3DB;}
</style>
<g>
	<g>
		<g>
			<path class="st0" d="M543.9,880.7c-42.8,0-83.5-0.6-107.5-2.3l-10.4-0.6c-61.7-3.8-206-12.7-279.7-106.8
				c-41.8-53.4-54.7-125.7-38.4-215c54.3-297.2,392.1-301.2,406-301.2c145.6-3.4,263.7,37.6,341.8,118.7
				c66.7,69.3,101.5,164.9,95.4,262.3c-1.1,17.9-4.1,36.3-8.9,54.7c-39.7,153.3-155.9,186.5-318,189.3
				C598.9,880.4,571,880.7,543.9,880.7z M512.6,289.5c-25.3,0-321.8,5.8-370.6,272.7c-14.5,79.1-3.8,142.1,31.6,187.3
				c64.1,81.8,192.7,89.7,254.5,93.5l10.6,0.7c38.2,2.6,120.4,2.6,184.8,1.5c150.5-2.6,250.7-30.9,285-163.3
				c4.2-16.3,6.9-32.5,7.8-48.2c5.4-86.4-26.7-174.6-85.8-236.1c-71.2-74-180.4-111.4-316.1-108.1l-0.3,0l-0.3,0
				C513.6,289.5,513.1,289.5,512.6,289.5z"/>
		</g>
	</g>
	<g>
		<g>
			
				<rect x="515.7" y="204.1" transform="matrix(-1 -1.224647e-16 1.224647e-16 -1 1059.5792 476.0567)" class="st0" width="28.1" height="68"/>
		</g>
	</g>
	<g>
		<g>
			<path class="st0" d="M529.8,227.2c-35.1,0-63.7-28.6-63.7-63.7c0-35.1,28.6-63.7,63.7-63.7c35.1,0,63.7,28.6,63.7,63.7
				C593.5,198.6,564.9,227.2,529.8,227.2z M529.8,134.5c-16,0-29,13-29,29c0,16,13,29,29,29c16,0,29-13,29-29
				C558.8,147.5,545.8,134.5,529.8,134.5z"/>
		</g>
	</g>
	<g>
		<path class="st0" d="M302.4,590.1c-7.2,0-14.8-0.2-22.3-1.1l0,0c-17.1-2-30.5-7.1-40.9-15.7c-11.1-9.2-18.5-22.4-20.3-36.2
			c-3.6-28,9.4-55.7,38.4-82.5c20.1-18.5,45.5-36.1,73.4-50.8c41.6-22,90.4-35.4,141.1-38.9c28.6-1.9,70.6-1,100.7,0.2
			c19.1,0.7,41.7,1.9,64.4,4.8c39.8,5.1,76.8,16.8,110,34.6c4.9,2.6,9.6,5.3,14.3,8.1c6,3.5,11.8,7.3,17.4,11.3
			c8,5.7,15.6,11.8,22.6,18.3c31,28.7,48,56.8,50.7,83.6c1.6,15.8-3.7,31.6-14.5,43.6c-11.4,12.6-27.8,19.7-45.1,19.7H530.5
			c-15,0-30,0.2-45,0.3c-28.8,0.3-58.5,0.6-87.8-0.2c-15-0.4-30.4-0.1-45.3,0.2c-10.7,0.2-21.3,0.4-32,0.4c-3,0-5.9,0-9,0.1
			C308.5,590,305.5,590.1,302.4,590.1z M284.1,554.5c8.5,1,17.8,0.8,26.9,0.8c3.2,0,6.4-0.1,9.5-0.1c10.4,0.1,20.9-0.2,31.3-0.4
			c15.3-0.3,31.1-0.6,46.9-0.2c28.7,0.8,58.1,0.5,86.5,0.2c15.1-0.2,30.3-0.3,45.3-0.3h261.9c7.5,0,14.6-3,19.4-8.3
			c4.3-4.7,6.3-10.7,5.7-16.8c-1.8-17.8-15.5-39.1-39.8-61.6c-5.9-5.5-12.4-10.7-19.1-15.5c-4.8-3.4-9.8-6.7-15-9.8
			c-4.3-2.6-8.7-5-13.1-7.4c-29.5-15.8-62.4-26.2-98-30.7c-21.4-2.8-43-3.9-61.3-4.6c-29.3-1.1-70-2.1-97-0.3
			c-45.8,3.1-89.9,15.2-127.3,34.9c-25.3,13.3-48.2,29.1-66.1,45.6c-20.3,18.7-29.6,36.4-27.5,52.5c0.7,5.1,3.6,10.2,8,13.8
			C266.5,550.8,273.7,553.3,284.1,554.5L284.1,554.5z"/>
	</g>
	<g>
		<g>
			<path class="st0" d="M654.9,1000.4H404.6c-25.9,0-46.9-21-46.9-46.9v-4.3c0-25.9,21.1-46.9,46.9-46.9h250.3
				c25.9,0,46.9,21,46.9,46.9v4.3C701.9,979.3,680.8,1000.4,654.9,1000.4z M404.6,936.9c-6.7,0-12.2,5.5-12.2,12.2v4.3
				c0,6.7,5.5,12.2,12.2,12.2h250.3c6.7,0,12.2-5.5,12.2-12.2v-4.3c0-6.7-5.5-12.2-12.2-12.2H404.6z"/>
		</g>
	</g>
	<g>
		<path class="st1" d="M379.1,505.4c-2-0.9,1-7.4,1.9-9.2c5.3-9.7,11.4-18.3,20.4-24.8c8.5-6.1,18.6-10.1,29-11.5
			c18.8-2.4,38.5,5.9,50.4,20.6c5.5,6.8,9.2,15,10.2,23.7c0.2,1.4,0,3.2-1.3,3.7c-1.3,0.4-2.5-0.9-3.3-2.1
			c-4.3-7.1-7.7-14.6-12.3-21.5c-4.5-6.6-10.2-12.3-17.7-15.3c-8.3-3.3-17.5-4.1-26.3-2.5c-8.3,1.5-16.1,5-23.2,9.5
			c-3.6,2.3-7,4.9-10.3,7.7c-3.1,2.6-5.4,6.3-7.7,9.6c-1.9,2.7-3.9,6.7-5.4,9.6C381.9,506.1,380.6,506,379.1,505.4z"/>
		<path class="st0" d="M489.2,511.6c-1.6,0-3.9-0.7-5.9-4c-1.8-3-3.5-6.1-5.1-9.2c-2.3-4.3-4.5-8.3-7.1-12.2c-4.7-6.9-10-11.6-16-14
			c-7.6-3-16-3.8-24.3-2.3c-7.3,1.3-14.6,4.4-21.8,9c-3.3,2.1-6.6,4.6-9.8,7.4c-2.2,1.9-4,4.5-5.8,7.1l-1.3,1.9
			c-1.7,2.4-3.6,6.1-4.9,8.9c-2.9,5.9-6.7,5.7-9.4,4.5h0l-1.5-0.7l-1.1-2.2c-1.2-3.7,1.8-9.7,2.7-11.5c6.5-12,13.2-20,21.5-26
			c9.1-6.5,19.7-10.7,30.7-12.1c19.9-2.5,40.9,6,53.7,21.9c6.1,7.6,9.9,16.4,11,25.6c0.5,4.5-1.7,6.9-3.9,7.6
			C490.5,511.4,489.9,511.6,489.2,511.6z M380.6,502l-1.5,3.3l1.7-3.3C380.7,502.1,380.7,502,380.6,502z M476,480.5
			c0.4,0.5,0.8,1.1,1.2,1.7c2.8,4.1,5.2,8.5,7.5,12.8c0.3,0.6,0.6,1.1,0.9,1.7c-1.6-5-4.2-9.7-7.6-13.9
			C477.3,482,476.7,481.2,476,480.5z"/>
	</g>
	<g>
		<path class="st1" d="M597.3,505.4c-2-0.9,1-7.4,1.9-9.2c5.3-9.7,11.4-18.3,20.4-24.8c8.5-6.1,18.6-10.1,29-11.5
			c18.8-2.4,38.5,5.9,50.4,20.6c5.5,6.8,9.2,15,10.2,23.7c0.2,1.4,0,3.2-1.3,3.7c-1.3,0.4-2.5-0.9-3.3-2.1
			c-4.3-7.1-7.7-14.6-12.3-21.5c-4.5-6.6-10.2-12.3-17.7-15.3c-8.3-3.3-17.5-4.1-26.3-2.5c-8.3,1.5-16.1,5-23.2,9.5
			c-3.6,2.3-7,4.9-10.3,7.7c-3.1,2.6-5.4,6.3-7.7,9.6c-1.9,2.7-3.9,6.7-5.4,9.6C600.1,506.1,598.8,506,597.3,505.4z"/>
		<path class="st0" d="M707.3,511.6c-1.6,0-3.9-0.7-5.9-4c-1.8-3-3.5-6.1-5.1-9.1c-2.3-4.3-4.5-8.4-7.1-12.2c-4.7-6.9-10-11.6-16-14
			c-7.6-3-16-3.8-24.3-2.3c-7.3,1.3-14.6,4.4-21.9,9c-3.3,2.1-6.6,4.6-9.9,7.4c-2.1,1.9-4,4.5-5.8,7.1l-1.3,1.9
			c-1.7,2.3-3.5,6.1-4.9,8.8c-3,6-6.7,5.8-9.4,4.6l-1.5-0.7l-1.1-2.2c-1.2-3.7,1.8-9.7,2.7-11.5c6.5-12,13.2-20,21.5-26
			c9.1-6.5,19.7-10.7,30.7-12.1c19.7-2.6,40.9,6,53.7,21.9c6.1,7.6,9.9,16.4,11,25.6c0.4,3.7-1,6.7-3.8,7.6
			C708.6,511.4,708,511.6,707.3,511.6z M598.8,502l-1.5,3.3l1.7-3.3C598.9,502.1,598.9,502,598.8,502z M694.1,480.4
			c0.4,0.6,0.8,1.1,1.2,1.7c2.8,4.2,5.2,8.6,7.5,12.8c0.3,0.6,0.6,1.1,0.9,1.7c-1.6-5-4.2-9.7-7.5-13.9
			C695.5,482,694.8,481.2,694.1,480.4z"/>
	</g>
	<g>
		<path class="st0" d="M49.1,358.9c-2.4,0.1-4.6-0.6-6.4-2.2c-1.8-1.6-2.8-3.6-3-6.1c-0.2-2.4,0.6-4.5,2.2-6.3
			c4-4.6,9.7-11.8,17-21.6c7.3-9.7,12.4-16.3,15.2-19.6c1.5-1.9,7.3-8.7,17.4-20.2c9.6-11.4,17.3-20.7,22.9-28
			c1.5-1.9,3.5-3.1,5.9-3.4c2.4-0.4,4.5,0.2,6.5,1.7c0.9,0.7,1.6,1.5,2.1,2.4c1.9,1.5,3,3.5,3.1,6l6.5,115.2
			c0.1,2.5-0.6,4.7-2.2,6.5c-1.6,1.8-3.6,2.8-6.1,3c-2.4,0.1-4.6-0.6-6.4-2.2c-1.8-1.6-2.8-3.6-3-6l-1.5-36.1
			c-4.6-1.3-7.1-2.1-7.7-2.3c-15-4.5-26.7-8.2-35.2-11.1c-9.9,12.8-16.9,21.9-21.2,27.1C53.6,357.7,51.5,358.8,49.1,358.9z
			 M118,323.4l-2.6-41.3L88.2,314C97.4,317,107.4,320.2,118,323.4z"/>
	</g>
	<g>
		<path class="st0" d="M647.5,195.7c-2-1.3-3.3-3.1-3.8-5.5c-0.4-1.8-0.2-3.6,0.5-5.4c-1.5-5.5-3.8-14-7-25.4
			c-3.2-11.4-5.5-20.1-7.1-26.1c-0.5-2-1.5-5.7-2.9-11.2c-1.4-5.4-2.4-9.4-3.2-11.9c-0.7-2.5-1.8-5.8-3.1-9.8
			c-1.3-4-2.6-7.6-3.9-10.7c-1.1-2.2-1.2-4.5-0.2-6.7c0.9-2.2,2.4-3.8,4.6-4.7c1.7-0.8,3.4-1,5.2-0.7c0.5-0.4,1.1-0.6,1.8-0.8
			c12.3-4.1,22.2-6.8,29.5-8c14-2.5,25.1-1.8,33.5,2.2c5.5,2.6,9.8,6.4,13,11.5c3.2,5,5,10.5,5.4,16.4c0.4,5.9-0.6,11.5-2.9,16.8
			c2.4,0.4,4.5,1.1,6.5,2.1c5.6,2.6,10,6.3,13,11c3.1,4.8,4.7,9.7,4.7,14.8c0.1,5.1-0.8,10.1-2.7,15.1c-1.9,5-4.6,9.3-8.1,12.9
			c-2.9,2.7-6.2,5.2-10.1,7.5c-3.8,2.3-7.4,4.3-10.8,5.8c-3.4,1.5-7.5,2.9-12.3,4.4c-4.8,1.4-8.7,2.4-11.5,3.1
			c-2.8,0.6-6.7,1.5-11.7,2.6c-5,1.1-8.3,1.8-9.9,2.1C651.7,197.3,649.5,197,647.5,195.7z M664.2,121.8c6.9-2,12.3-3.3,16-4.1l1-0.3
			c3.1-1.4,5.4-3,7-4.7c3.7-3.8,5.1-8.5,4.1-14.2c-0.9-5.8-3.7-9.7-8.2-11.9c-5.1-2.4-12.8-2.6-23.3-0.8c-6.2,1.2-14.2,3.4-24.2,6.6
			c1.9,5.5,5.1,16.5,9.4,33.1l0.5-0.1c4.5-0.6,7.8-1.1,9.7-1.3C657.4,123.8,660,123,664.2,121.8z M678.4,173.5
			c5.6-1.3,11.1-3.2,16.5-5.7c5.4-2.5,9.8-5.5,13.2-8.9c4.3-4.1,6.2-8.9,5.7-14.3c-0.5-5.4-3-9.1-7.7-11.3
			c-3.3-1.5-9.8-1.3-19.6,0.7c-3.4,1.5-7.3,2.9-11.7,4c-3.4,0.8-8.5,1.8-15.2,3.1c-1.6,0.3-2.9,0.6-4.1,0.9c-0.9,0.1-1.9,0.1-2.9,0
			l-2.1,0.4c0.6,2.1,2,7.4,4.4,15.8c2.4,8.4,4.1,14.8,5.4,19.4C666.8,176.2,672.8,174.8,678.4,173.5z"/>
	</g>
	<g>
		<path class="st0" d="M947.3,436.4c-5.3-3.5-9.6-7.4-13-11.6c-3.8-4.7-6.7-10.5-8.7-17.5s-2.9-14.1-2.9-21.5
			c0.1-7.4,1.2-14.1,3.2-20.3c2.8-8.2,7.3-15.6,13.4-22.2c6.2-6.6,13.5-12,22.1-16.2c6.5-3.2,13.2-5.1,20.1-5.6
			c8.1-0.5,15.8,0.4,23.1,2.9c6.2,2.1,12.1,5.5,17.5,10c3.5,2.9,6.3,6.1,8.4,9.4c2.1,3.3,4.1,7.5,6.2,12.5l2.9,7.8
			c0.7,2.1,0.8,4,0.2,5.8c-0.7,2.2-2.3,3.8-4.6,4.9c-2.3,1.1-4.6,1.2-6.9,0.4c-2.3-0.8-4-2.5-5-5.2l-3.6-9.5c-1-2.2-2.2-4.4-3.8-6.7
			c-1.5-2.3-3.2-4.2-5-5.8c-4-3.6-8.5-6-13.3-7.3c-10.3-2.5-19.9-1.7-28.9,2.4c-13.3,6.2-22,15.6-26.3,28.1
			c-2.3,6.7-2.9,14.3-1.8,22.8c1.1,8.5,3.5,15.2,7.2,20c2.3,2.9,5.4,5.6,9.2,8.1c3.8,2.5,7.9,4.5,12.3,6c13.3,4.5,23.2,3.8,29.8-2.2
			c1.2-1.1,3-3.3,5.4-6.6l3.4-4.7c1.2-1.5,2.7-2.6,4.4-3.1c1.7-0.5,3.3-0.5,4.9,0c2.2,0.7,3.9,2.2,5.1,4.3c1.2,2.1,1.4,4.4,0.6,6.8
			c-0.3,1-0.8,1.9-1.5,2.8l-2.3,3.1c-3.8,5.1-6.5,8.5-8.3,10.2c-5.4,4.8-11.7,7.7-19,8.8c-7.2,1.1-14.9,0.6-23-1.4
			c-1-0.2-2.6-0.7-4.7-1.4C958.2,442.7,952.6,439.9,947.3,436.4z"/>
	</g>
	<g>
		<path class="st0" d="M829.5,235c-13.8,0.1-23.4,0.2-28.9,0.2c-2.4,0-4.5-0.8-6.2-2.4c-1.7-1.6-2.5-3.4-2.5-5.6
			c0-2.1,0.8-4,2.5-5.7c1.7-1.6,3.7-2.4,6.2-2.4c5.4,0,15-0.1,28.7-0.2c0-11.5,0.1-21.3,0.3-29.6c0.1-2.3,1.1-4.3,2.8-6
			c1.7-1.7,3.8-2.5,6.2-2.4c2.4,0.1,4.4,1,6.1,2.8c1.7,1.7,2.5,3.8,2.4,6.3c-0.2,8-0.4,17.6-0.4,28.7c11.6,0,21.7,0.1,30.4,0.4
			c2.4,0.1,4.5,1,6.1,2.6s2.4,3.5,2.4,5.7c-0.1,2.1-1,4-2.7,5.5c-1.7,1.5-3.8,2.3-6.1,2.3c-8.6-0.2-18.6-0.4-29.9-0.4
			c0.2,14.5,0.4,24.6,0.4,30.4c0,2.4-0.8,4.5-2.5,6.2c-1.7,1.7-3.7,2.5-6.2,2.5c-2.4,0-4.5-0.8-6.2-2.5c-1.7-1.7-2.5-3.7-2.5-6.2
			C829.9,259.4,829.7,249.3,829.5,235z"/>
	</g>
	<g>
		<path class="st0" d="M323.3,217.2c-9.7-4.6-16.5-7.9-20.3-9.7c-1.7-0.8-2.9-2.1-3.5-3.7c-0.6-1.7-0.6-3.3,0.1-4.8s2-2.5,3.7-3.1
			c1.7-0.6,3.4-0.4,5.2,0.4c3.8,1.9,10.5,5.1,20.2,9.7c3.9-8,7.4-14.9,10.3-20.6c0.9-1.6,2.2-2.7,4-3.3c1.8-0.6,3.5-0.4,5.1,0.5
			c1.6,0.9,2.7,2.2,3.3,4c0.6,1.8,0.4,3.5-0.5,5.2c-2.9,5.5-6.2,12.2-10,20c8.1,4,15.2,7.5,21.2,10.6c1.7,0.9,2.8,2.2,3.4,3.9
			c0.6,1.7,0.5,3.3-0.3,4.8c-0.8,1.5-2,2.5-3.8,2.9c-1.7,0.5-3.4,0.3-5-0.5c-5.9-3.1-12.9-6.6-20.8-10.5
			c-4.8,10.2-8.2,17.4-10.2,21.4c-0.8,1.7-2.1,2.9-3.9,3.5c-1.8,0.6-3.5,0.5-5.2-0.3c-1.7-0.8-2.9-2.1-3.5-3.9
			c-0.6-1.7-0.5-3.5,0.4-5.2C315.2,234.4,318.5,227.3,323.3,217.2z"/>
	</g>
</g>
</svg>
