<?xml version="1.0" encoding="utf-8"?>
<!-- Generator: Adobe Illustrator 25.4.1, SVG Export Plug-In . SVG Version: 6.00 Build 0)  -->
<svg version="1.1" xmlns="http://www.w3.org/2000/svg" xmlns:xlink="http://www.w3.org/1999/xlink" x="0px" y="0px"
	 viewBox="0 0 1080 1080" style="enable-background:new 0 0 1080 1080;" xml:space="preserve">
<style type="text/css">
	.st0{display:none;}
	.st1{display:inline;}
	.st2{fill:#0094C0;}
	.st3{fill:none;stroke:#0094C0;stroke-width:33.663;}
	.st4{fill:#0494C0;}
	.st5{fill:none;stroke:#0494C0;stroke-width:31.5199;}
</style>
<g id="Capa_1" class="st0">
	<g id="Rectángulo_2105" class="st1">
		<path class="st2" d="M136,186.5h808c46.5,0,84.2,37.7,84.2,84.2l0,0c0,46.5-37.7,84.2-84.2,84.2H136c-46.5,0-84.2-37.7-84.2-84.2
			l0,0C51.9,224.2,89.6,186.5,136,186.5z"/>
		<path class="st3" d="M136,203.4h808c37.2,0,67.3,30.1,67.3,67.3l0,0c0,37.2-30.1,67.3-67.3,67.3H136c-37.2,0-67.3-30.1-67.3-67.3
			l0,0C68.7,233.5,98.9,203.4,136,203.4z"/>
	</g>
	<g id="Rectángulo_2107" transform="translate(9 8)" class="st1">
		<path class="st2" d="M430,447.8h505c46.5,0,84.2,37.7,84.2,84.2l0,0c0,46.5-37.7,84.2-84.2,84.2H430c-46.5,0-84.2-37.7-84.2-84.2
			l0,0C345.9,485.5,383.5,447.8,430,447.8z"/>
		<path class="st3" d="M430,464.7h505c37.2,0,67.3,30.1,67.3,67.3l0,0c0,37.2-30.1,67.3-67.3,67.3H430c-37.2,0-67.3-30.1-67.3-67.3
			l0,0C362.7,494.8,392.8,464.7,430,464.7z"/>
	</g>
	<g id="Rectángulo_2108" transform="translate(0 16)" class="st1">
		<path class="st2" d="M136,709.1h808c46.5,0,84.2,37.7,84.2,84.2l0,0c0,46.5-37.7,84.2-84.2,84.2H136c-46.5,0-84.2-37.7-84.2-84.2
			l0,0C51.9,746.8,89.6,709.1,136,709.1z"/>
		<path class="st3" d="M136,726h808c37.2,0,67.3,30.1,67.3,67.3l0,0c0,37.2-30.1,67.3-67.3,67.3H136c-37.2,0-67.3-30.1-67.3-67.3
			l0,0C68.7,756.1,98.9,726,136,726z"/>
	</g>
</g>
<g id="Capa_2">
	<g id="Rectángulo_2105_00000076595658439121945010000016988113228580851855_" transform="translate(4.66 0.25) rotate(50)">
		<path class="st4" d="M401.6-157.5l722.6,14.4c41.6,0.8,74.6,35.2,73.8,76.8l0,0c-0.8,41.6-35.2,74.6-76.8,73.8L398.6-6.9
			C357-7.7,324-42.1,324.8-83.7l0,0C325.7-125.3,360-158.3,401.6-157.5z"/>
		<path class="st5" d="M401.3-141.7l722.6,14.4c32.9,0.7,59,27.8,58.3,60.7l0,0c-0.7,32.9-27.8,59-60.7,58.3L398.9-22.7
			c-32.9-0.7-59-27.8-58.3-60.7l0,0C341.2-116.3,368.4-142.4,401.3-141.7z"/>
	</g>
	<g id="Rectángulo_2109" transform="translate(21.471 3.071) rotate(130)">
		<path class="st4" d="M-292-808.2l755.7,15c43.5,0.9,78,36.8,77.2,80.3l0,0c-0.9,43.5-36.8,78-80.3,77.2l-755.7-15
			c-43.5-0.9-78-36.8-77.2-80.3l0,0C-371.4-774.5-335.5-809-292-808.2z"/>
		<path class="st5" d="M-275.7-788.6L447-774.3c32.9,0.7,59,27.8,58.3,60.7l0,0c-0.7,32.9-27.8,59-60.7,58.3L-278-669.6
			c-32.9-0.7-59-27.8-58.3-60.7l0,0C-335.7-763.2-308.6-789.3-275.7-788.6z"/>
	</g>
</g>
</svg>
