<svg id="Capa_2" data-name="Capa 2" xmlns="http://www.w3.org/2000/svg" viewBox="0 0 696.26 792.25"><defs><style>.cls-1,.cls-2,.cls-3{fill:#fff;stroke-miterlimit:10;}.cls-1{stroke:#abdbeb;}.cls-1,.cls-2{stroke-width:22.81px;}.cls-2{stroke:#81cce3;}.cls-3{stroke:#0494c0;stroke-width:22.7px;}</style></defs><path class="cls-1" d="M524.93,482.56H687.17c104.7,0,189.58,84.87,189.58,189.58V772.37a63.94,63.94,0,0,1-63.94,63.94H409.33a74,74,0,0,1-74-74h0V672.16c0-104.7,84.85-189.59,189.55-189.6Z" transform="translate(-191.9 -143.85)"/><circle class="cls-1" cx="414.16" cy="158.55" r="147.14"/><path class="cls-2" d="M457.54,522.44H619.78c104.7,0,189.58,84.88,189.58,189.58V812.25a63.94,63.94,0,0,1-63.94,63.94H341.93a74,74,0,0,1-74-74h0V712.05c0-104.7,84.85-189.59,189.56-189.61Z" transform="translate(-191.9 -143.85)"/><circle class="cls-2" cx="346.77" cy="198.44" r="147.14"/><path class="cls-3" d="M392.87,571H555.1c104.71,0,189.58,84.88,189.58,189.58V860.81a63.93,63.93,0,0,1-63.93,63.93H277.25a74,74,0,0,1-74-74h0V760.6C203.23,655.9,288.1,571,392.8,571Z" transform="translate(-191.9 -143.85)"/><circle class="cls-3" cx="282.09" cy="246.99" r="147.14"/></svg>