<svg id="Capa_1" data-name="Capa 1" xmlns="http://www.w3.org/2000/svg" viewBox="0 0 1039.51 717.61"><defs><style>.cls-1,.cls-2,.cls-3{fill:#fff;stroke-miterlimit:10;}.cls-1{stroke:#abdbeb;}.cls-1,.cls-2{stroke-width:26.17px;}.cls-2{stroke:#81cce3;}.cls-3{stroke:#0494c0;stroke-width:26.04px;}</style></defs><path class="cls-1" d="M939.23,634.7c22.67-40.22,32.27-94.79,18.83-169.1C908.31,190.63,594,194.44,594,194.44c-302.14-7.32-401.87,193.85-392.67,342.65a260.59,260.59,0,0,0,7.83,48.63C244,721.49,346.38,749.83,491.28,752.36c65.44,1.14,139.61.91,174.28-1.45,40.29-2.75,133.12-5.48,204.71-47.69,131.27,48.76,169.12,13,169.12,13C975.89,704.48,947,651.59,939.23,634.7Z" transform="translate(-27.59 -181.16)"/><path class="cls-2" d="M864.06,705.56c22.68-40.23,32.28-94.79,18.83-169.11-49.75-275-364.07-271.15-364.07-271.15C216.68,258,117,459.13,126.17,608A260.7,260.7,0,0,0,134,656.59c34.84,135.77,137.22,164.1,282.12,166.63,65.44,1.15,139.61.91,174.28-1.46,40.29-2.74,133.12-5.47,204.73-47.67,131.26,48.75,169.1,13,169.1,13C900.72,775.39,871.8,722.45,864.06,705.56Z" transform="translate(-27.59 -181.16)"/><path class="cls-3" d="M779.09,768.64c22.67-39.82,32.28-93.87,18.83-167.43C748.16,329,433.85,332.75,433.85,332.75,131.71,325.49,32,524.67,41.19,672A256.33,256.33,0,0,0,49,720.15c34.82,134.42,137.21,162.47,282.1,164.94,65.45,1.14,139.61.9,174.29-1.44,40.28-2.72,133.13-5.42,204.72-47.2,131.26,48.31,169.1,12.91,169.1,12.91C815.74,837.73,786.82,785.36,779.09,768.64Z" transform="translate(-27.59 -181.16)"/></svg>