<svg id="Capa_1" data-name="Capa 1" xmlns="http://www.w3.org/2000/svg" viewBox="0 0 787.19 827.83"><defs><style>.cls-1,.cls-3,.cls-4,.cls-5{fill:#fff;stroke:#0494c0;stroke-miterlimit:10;}.cls-1{stroke-width:31.19px;}.cls-2{fill:#0494c0;}.cls-3{stroke-width:23.85px;}.cls-4{stroke-width:29.27px;}.cls-5{stroke-width:31.55px;}</style></defs><path class="cls-1" d="M449.42,146.51A142.75,142.75,0,0,0,428,144.27l-8.6-.24A120.14,120.14,0,0,0,288,222.44c-73,20.12-125.88,78.16-125.88,146.72,0,74.37,62.14,136.44,144.86,151.05-76.79,18.17-133.19,77.7-133.19,148.51,0,69.71,54.6,128.57,129.54,147.72,0,.1,0,.19,0,.28A121.35,121.35,0,0,0,474.84,927.36c43-17.89,71.47-54.6,71.47-102.92V252.24C546.31,195.68,518.1,159.74,449.42,146.51Z" transform="translate(-146.5 -125.99)"/><path class="cls-2" d="M307.11,196.58c-2,17.08-4.81,32.61-7.12,47.8s-4.18,29.78-4.29,43.67,1.37,26.85,6.08,39.37c5,12.5,14.4,23.49,26.18,36.49-16.86-1-34.81-8.47-47-23.57-11.85-15.15-16.71-34.7-16.4-52.66a121.12,121.12,0,0,1,12.15-50.63C284.08,221.74,293.71,207.59,307.11,196.58Z" transform="translate(-146.5 -125.99)"/><path class="cls-2" d="M315.49,874.05c-10.86-13.78-17.37-29.82-21.49-46.52A125.41,125.41,0,0,1,292.35,775c3.29-17.81,11.8-36.2,26.46-49a65.9,65.9,0,0,1,51.35-14.18c-14.44,10.33-25.82,19.49-33.34,30.83-7.13,11.56-11.11,24.27-13.83,38.19s-4,28.86-4.67,44.39S317.05,856.72,315.49,874.05Z" transform="translate(-146.5 -125.99)"/><rect class="cls-3" x="413.22" y="185.03" width="77.66" height="434.49"/><polyline class="cls-4" points="678.54 70.59 490.88 70.59 490.88 715.24 678.54 715.24"/><line class="cls-5" x1="490.88" y1="388.39" x2="678.54" y2="388.39"/><circle class="cls-5" cx="716.6" cy="70.59" r="54.81"/><circle class="cls-5" cx="716.6" cy="388.39" r="54.81"/><circle class="cls-5" cx="716.6" cy="715.24" r="54.81"/></svg>