<svg id="Capa_1" data-name="Capa 1" xmlns="http://www.w3.org/2000/svg" viewBox="0 0 730.08 767.78"><defs><style>.cls-1,.cls-3,.cls-4,.cls-6{fill:#fff;}.cls-1,.cls-3,.cls-4,.cls-5,.cls-6{stroke:#0494c0;stroke-miterlimit:10;}.cls-1{stroke-width:28.93px;}.cls-2{fill:#0494c0;}.cls-3{stroke-width:22.12px;}.cls-4{stroke-width:27.15px;}.cls-5{fill:none;}.cls-5,.cls-6{stroke-width:29.26px;}</style></defs><path class="cls-1" d="M460.88,179.55A132.44,132.44,0,0,0,441,177.47l-8-.22A111.43,111.43,0,0,0,311.16,250c-67.7,18.67-116.75,72.5-116.75,136.08,0,69,57.64,126.55,134.36,140.1C257.55,543,205.24,598.22,205.24,663.89c0,64.65,50.64,119.25,120.14,137v.26A112.55,112.55,0,0,0,484.46,903.77c39.88-16.59,66.28-50.64,66.28-95.45V277.61C550.74,225.15,524.58,191.82,460.88,179.55Z" transform="translate(-179.95 -160.52)"/><path class="cls-2" d="M328.89,226c-1.86,15.84-4.46,30.24-6.6,44.33s-3.88,27.62-4,40.51,1.27,24.9,5.64,36.51c4.63,11.59,13.35,21.79,24.28,33.84-15.64-.92-32.29-7.85-43.59-21.86-11-14.05-15.5-32.18-15.22-48.84a112.52,112.52,0,0,1,11.27-47C307.53,249.33,316.46,236.2,328.89,226Z" transform="translate(-179.95 -160.52)"/><path class="cls-2" d="M336.66,854.33c-10.07-12.78-16.11-27.66-19.93-43.15a116.18,116.18,0,0,1-1.53-48.72c3.05-16.52,10.94-33.57,24.54-45.44a61.12,61.12,0,0,1,47.63-13.16c-13.4,9.59-23.95,18.08-30.93,28.6-6.61,10.72-10.3,22.51-12.82,35.42s-3.71,26.77-4.33,41.17S338.11,838.26,336.66,854.33Z" transform="translate(-179.95 -160.52)"/><rect class="cls-3" x="383.23" y="171.61" width="72.03" height="402.98"/><polyline class="cls-4" points="629.31 65.47 455.26 65.47 455.26 663.37 629.31 663.37"/><line class="cls-5" x1="455.26" y1="360.22" x2="629.31" y2="360.22"/><circle class="cls-6" cx="664.61" cy="65.47" r="50.84"/><circle class="cls-6" cx="664.61" cy="360.22" r="50.84"/><circle class="cls-6" cx="664.61" cy="663.37" r="50.84"/></svg>