<svg id="Capa_1" data-name="Capa 1" xmlns="http://www.w3.org/2000/svg" viewBox="0 0 763.94 869.21"><defs><style>.cls-1,.cls-2,.cls-3{fill:#fff;stroke-miterlimit:10;}.cls-1{stroke:#aadbec;}.cls-1,.cls-2{stroke-width:25.03px;}.cls-2{stroke:#7fcce3;}.cls-3{stroke:#0494c0;stroke-width:24.91px;}</style></defs><path class="cls-1" d="M365.39,371.61h178a208,208,0,0,1,208,208V689.58a70.15,70.15,0,0,1-70.15,70.15H238.55a81.19,81.19,0,0,1-81.19-81.19v-98.9A208,208,0,0,1,365.39,371.61Z"/><circle class="cls-1" cx="454.39" cy="173.95" r="161.44"/><path class="cls-2" d="M291.45,415.37h178a208,208,0,0,1,208,208V733.34a70.15,70.15,0,0,1-70.15,70.15H164.61a81.19,81.19,0,0,1-81.19-81.19v-98.9A208,208,0,0,1,291.45,415.37Z"/><circle class="cls-2" cx="380.46" cy="217.72" r="161.44"/><path class="cls-3" d="M220.49,468.64h178a208,208,0,0,1,208,208V786.61a70.15,70.15,0,0,1-70.15,70.15H93.64a81.19,81.19,0,0,1-81.19-81.19v-98.9A208,208,0,0,1,220.49,468.64Z"/><circle class="cls-3" cx="309.49" cy="270.98" r="161.44"/></svg>