<svg id="Capa_1" data-name="Capa 1" xmlns="http://www.w3.org/2000/svg" viewBox="0 0 976.04 673.84"><defs><style>.cls-1,.cls-2,.cls-3{fill:#fff;stroke-miterlimit:10;}.cls-1{stroke:#aadbec;}.cls-1,.cls-2{stroke-width:24.57px;}.cls-2{stroke:#7fcce3;}.cls-3{stroke:#0494c0;stroke-width:24.45px;}</style></defs><path class="cls-1" d="M914.86,628.9c21.28-37.77,30.3-89,17.68-158.78-46.72-258.18-341.85-254.6-341.85-254.6C307,208.64,213.36,397.53,222,537.25a243.86,243.86,0,0,0,7.35,45.66C262.07,710.39,358.2,737,494.25,739.38c61.45,1.07,131.09.85,163.64-1.37,37.83-2.58,125-5.14,192.22-44.77,123.25,45.78,158.79,12.2,158.79,12.2C949.28,694.42,922.11,644.76,914.86,628.9Z" transform="translate(-58.88 -203.05)"/><path class="cls-2" d="M844.28,695.43c21.29-37.77,30.3-89,17.68-158.78-46.72-258.18-341.85-254.6-341.85-254.6-283.69-6.87-377.33,182-368.68,321.74a244.82,244.82,0,0,0,7.35,45.66c32.71,127.48,128.84,154.08,264.89,156.46,61.45,1.08,131.09.85,163.64-1.37,37.83-2.57,125-5.14,192.23-44.76C902.79,805.55,938.32,772,938.32,772,878.7,761,851.54,711.29,844.28,695.43Z" transform="translate(-58.88 -203.05)"/><path class="cls-3" d="M764.49,754.66c21.29-37.39,30.31-88.14,17.68-157.21C735.45,341.83,440.33,345.38,440.33,345.38,156.64,338.57,63,525.59,71.64,663.93A241,241,0,0,0,79,709.13C111.7,835.35,207.84,861.68,343.88,864c61.46,1.07,131.09.85,163.65-1.35,37.82-2.55,125-5.09,192.22-44.32C823,863.69,858.53,830.45,858.53,830.45,798.91,819.53,771.75,770.36,764.49,754.66Z" transform="translate(-58.88 -203.05)"/></svg>