<?xml version="1.0" encoding="utf-8"?>
<!-- Generator: Adobe Illustrator 25.4.1, SVG Export Plug-In . SVG Version: 6.00 Build 0)  -->
<svg version="1.1" id="Capa_1" xmlns="http://www.w3.org/2000/svg" xmlns:xlink="http://www.w3.org/1999/xlink" x="0px" y="0px"
	 viewBox="0 0 1080 1080" style="enable-background:new 0 0 1080 1080;" xml:space="preserve">
<style type="text/css">
	.st0{fill:none;stroke:#0094C0;stroke-width:28.3844;stroke-linejoin:bevel;stroke-miterlimit:10;}
	.st1{fill:none;stroke:#0094C0;stroke-width:33.142;stroke-linejoin:round;stroke-miterlimit:10;}
	.st2{fill:none;stroke:#0094C0;stroke-width:33.1422;stroke-linecap:round;stroke-linejoin:round;stroke-miterlimit:10;}
	.st3{fill:#FFFFFF;}
	.st4{fill:none;stroke:#0094C0;stroke-width:8.6865;stroke-linecap:round;stroke-linejoin:round;stroke-miterlimit:10;}
	.st5{fill:none;stroke:#0094C0;stroke-width:23.4989;stroke-linecap:round;stroke-linejoin:round;stroke-miterlimit:10;}
</style>
<g>
	<g>
		<path class="st0" d="M725.4,445.6c0-122.7-99.4-222.1-222.1-222.1s-222.1,99.4-222.1,222.1c0,24.7,4.2,48.4,11.7,70.6h-0.2
			c0,0,0.6,1.3,1.5,3.6c3.2,9,6.9,17.8,11.2,26.3c25.1,58,82.4,186.4,125.5,253h181.8c0,0,74.5-209.8,101.2-282.9h-0.2
			C721.2,494,725.4,470.3,725.4,445.6z"/>
	</g>
	<path class="st1" d="M559.7,967.5h-73.5c-28.1,0-50.9-22.8-50.9-50.9V808.8h172.4v110.7C607.7,946,586.2,967.5,559.7,967.5z"/>
	<polyline class="st2" points="521.5,808.8 521.5,543.3 475.9,543.3 565.9,543.3 	"/>
	<line class="st2" x1="303.5" y1="160.9" x2="339.1" y2="207.8"/>
	<line class="st2" x1="521" y1="91" x2="522" y2="149.8"/>
	<line class="st2" x1="674.8" y1="184.3" x2="710.4" y2="137.5"/>
	<circle class="st3" cx="738.9" cy="417.9" r="165.8"/>
	<circle class="st4" cx="738.7" cy="417.9" r="28.3"/>
	<g>
		<path class="st5" d="M883.8,428.6l-40.7-11.1c-0.1-17.7-4.6-34.4-12.4-49.1l30.5-29.2l-38.7-40.4L792,328.1
			c-15.6-9.3-33.8-14.7-53.3-14.7c-1.8,0-3.5,0.2-5.3,0.3L720,273.5l-53,17.7l13.3,40c-14.2,9.5-25.8,22.5-33.9,37.6l-41.2-9.1
			l-12.1,54.6l41.3,9.1c0.9,17.6,6.2,34.1,14.8,48.3l-29.1,30.7l40.6,38.4l29-30.6c14.6,7.7,31.2,12.2,48.9,12.2c0.1,0,0.2,0,0.2,0
			l11.4,40.6l53.8-15.1l-11.4-40.7c14.6-8.9,26.9-21.2,35.6-35.8l40.8,11.2L883.8,428.6z"/>
	</g>
</g>
</svg>
