<?xml version="1.0" encoding="utf-8"?>
<!-- Generator: Adobe Illustrator 25.4.1, SVG Export Plug-In . SVG Version: 6.00 Build 0)  -->
<svg version="1.1" id="Capa_1" xmlns="http://www.w3.org/2000/svg" xmlns:xlink="http://www.w3.org/1999/xlink" x="0px" y="0px"
	 viewBox="0 0 1080 1080" style="enable-background:new 0 0 1080 1080;" xml:space="preserve">
<style type="text/css">
	.st0{fill:none;stroke:#0494C0;stroke-width:2.9212;stroke-miterlimit:10;}
	.st1{fill:#FAFAFA;}
	.st2{fill:#0494C0;}
	.st3{fill:#FFFFFF;}
	.st4{fill:none;stroke:#0494C0;stroke-width:34.9826;stroke-miterlimit:10;}
</style>
<g>
	<g>
		<path class="st0" d="M568.5,560.5c2.1-3.6,3-8.6,1.7-15.3c-4.5-24.8-33.2-24.5-33.2-24.5c-27.6-0.7-36.7,17.5-35.8,31
			c0.1,1.5,0.3,3,0.7,4.4c3.2,12.3,12.5,14.8,25.7,15.1c6,0.1,12.7,0.1,15.9-0.1c3.7-0.2,12.2-0.5,18.7-4.3
			c12,4.4,15.4,1.2,15.4,1.2C571.8,566.8,569.2,562,568.5,560.5z"/>
	</g>
	<g>
		<path class="st1" d="M549.7,538.2c-1.6-3.2-4.1-4.3-4.1-4.4l-1.3-0.6l1.1-1c7.5-7.2,18.9-16.9,30.7-22.7c0.4-0.2,0.8-0.3,1.2-0.3
			c0.4,0,1.5,0.2,1.5,1.8c0.2,5.7-22.9,23.9-27.5,27.5l-1,0.7L549.7,538.2z"/>
		<path class="st2" d="M577.1,510.2c0.5,0,0.5,0.6,0.6,0.9c0.2,5.5-27.1,26.6-27.1,26.6c-1.8-3.6-4.6-4.8-4.6-4.8
			c15.7-15.1,26.8-20.7,30.4-22.5C576.7,510.3,577,510.2,577.1,510.2 M577.1,508.2c-0.5,0-1,0.1-1.6,0.4
			c-11.9,5.8-23.4,15.6-30.9,22.8l-2.1,2.1l2.7,1.2c0.1,0,2.2,1,3.6,3.9l1.1,2.1l1.9-1.5c0.1-0.1,6.9-5.4,13.7-11.3
			c12.6-11.1,14.2-14.8,14.2-16.9C579.6,508.3,577.4,508.2,577.1,508.2L577.1,508.2z"/>
	</g>
	<g>
		<path class="st3" d="M539.5,547.9c-2.2,0-4.5-0.6-6.6-1.7l-2.5-1.3l2.8-0.5c0.1,0,2.9-0.6,2.6-2.7c-0.4-2.8,0.5-3.8,1.4-4.5
			c0.8-0.6,1.8-0.9,2.9-0.9c1.2,0,2.3,0.3,3.3,0.9c1.2,0.7,2.1,1.7,2.7,3c1,2.3,0.1,5.3-1.9,6.6
			C542.9,547.4,541.3,547.9,539.5,547.9z"/>
		<path class="st2" d="M540.1,537.2c0.9,0,1.9,0.2,2.8,0.7c0.9,0.5,1.7,1.3,2.3,2.5c0.8,1.8,0.1,4.3-1.5,5.3
			c-1.1,0.7-2.6,1.1-4.1,1.1c-2,0-4.2-0.6-6.2-1.6c0,0,3.8-0.7,3.3-3.8c-0.4-2.6,0.5-3.2,1.1-3.7
			C538.4,537.4,539.2,537.2,540.1,537.2 M540.1,535.2L540.1,535.2c-1.4,0-2.6,0.4-3.5,1.1l-0.1,0c-1.2,0.9-2.3,2.3-1.8,5.5
			c0.2,1.1-1.7,1.5-1.8,1.6l-5.4,1.1l4.9,2.6c2.2,1.2,4.8,1.8,7.1,1.8c2,0,3.8-0.5,5.2-1.4c2.4-1.6,3.4-5.1,2.2-7.8
			c-0.6-1.4-1.7-2.6-3.1-3.4C542.8,535.6,541.4,535.2,540.1,535.2L540.1,535.2z"/>
	</g>
</g>
<g>
	<g>
		<path class="st4" d="M889,764c24.7-43.5,35.3-102.4,20.7-182.8c-54.4-297.5-397.9-293.4-397.9-293.4
			C181.6,279.9,72.6,497.6,82.7,658.6c1.1,17.9,4.1,35.5,8.6,52.6c38.1,146.9,150,177.6,308.3,180.3c71.5,1.2,152.6,1,190.5-1.6
			c44-3,145.5-6,223.8-51.7c143.3,52.7,184.8,14.1,184.8,14.1C928.7,839.6,897.2,781.8,889,764z"/>
	</g>
	<g>
		<path class="st1" d="M663.7,496.6c-19.3-38.2-49.1-52-49.4-52.1l-16.1-7.2l12.7-12.2c89.7-85.8,226.2-202.5,367.3-271.5
			c5.2-2.5,9.7-3.7,13.8-3.7c5.4,0,17.9,2.1,18.5,21.9c2.2,68.5-273.7,286-329,328.9l-11.4,8.8L663.7,496.6z"/>
		<path class="st2" d="M992,161.7c6.5,0,6.5,6.9,6.6,10.6c2.1,65.7-324.4,318.9-324.4,318.9c-21.6-42.9-55.2-57.6-55.2-57.6
			C807.7,253.2,940,185.5,983.4,164.2C987.1,162.4,989.9,161.7,992,161.7 M992,137.9c-6,0-12.2,1.6-19,4.9
			c-142.5,69.7-280,187.2-370.3,273.6L577,441.1l32.6,14.3c0.9,0.4,26.3,12.5,43.5,46.5l13,25.7l22.8-17.7
			c0.8-0.6,83.1-64.6,164.1-135.8c150.8-132.6,170.3-176.9,169.5-202.7C1021.4,138.9,995,137.9,992,137.9L992,137.9z"/>
	</g>
	<g>
		<path class="st3" d="M541.5,612.7c-25.8,0-54-7.2-79.2-20.3L432,576.8l33.5-6.5c1.4-0.3,34.4-7.3,30.6-32.1
			c-5.1-33.7,6.3-45.7,17.4-54.3c9-7,21.6-10.7,35.3-10.7c13.8,0,27.7,3.7,39.1,10.4c14.7,8.6,25.5,20.6,32,35.6
			c11.8,27,1.5,63-22.4,78.6C582.5,607.6,563.2,612.7,541.5,612.7z"/>
		<path class="st2" d="M548.7,485c10.8,0,22.7,2.7,33.1,8.8c10.4,6.1,20.8,15.6,27.2,30.2c9.2,21.1,1.6,51.1-18,63.9
			c-13.7,8.9-31,13-49.5,13c-24.2,0-50.5-6.9-73.8-19c0,0,45.7-8.9,40.1-45.5c-4.7-30.7,6.3-38,13.7-43.8
			C527.7,487.8,537.6,485,548.7,485 M548.7,461.2L548.7,461.2c-16.5,0-31.4,4.5-41.8,12.6l-0.7,0.6c-14.1,10.9-27.6,27.2-21.8,65.5
			c2.1,13.6-20.4,18.5-21.4,18.7L398,572.4l58.9,30.6c26.9,13.9,57,21.6,84.7,21.6c24,0,45.6-5.8,62.5-16.8
			c29-18.9,41-60.8,26.8-93.3c-7.6-17.3-20-31.2-36.9-41.1C580.7,465.5,564.6,461.2,548.7,461.2L548.7,461.2z"/>
	</g>
</g>
</svg>
